<svg aria-roledescription="er" viewBox="0 0 537.9632568359375 488" style="max-width: 537.963px; background-color: white;" xmlns:xlink="http://www.w3.org/1999/xlink" xmlns="http://www.w3.org/2000/svg" width="100%" id="mermaid-0"><style>#mermaid-0{font-family:"trebuchet ms",verdana,arial,sans-serif;font-size:16px;fill:#000000;}#mermaid-0 .error-icon{fill:#552222;}#mermaid-0 .error-text{fill:#552222;stroke:#552222;}#mermaid-0 .edge-thickness-normal{stroke-width:2px;}#mermaid-0 .edge-thickness-thick{stroke-width:3.5px;}#mermaid-0 .edge-pattern-solid{stroke-dasharray:0;}#mermaid-0 .edge-pattern-dashed{stroke-dasharray:3;}#mermaid-0 .edge-pattern-dotted{stroke-dasharray:2;}#mermaid-0 .marker{fill:#000000;stroke:#000000;}#mermaid-0 .marker.cross{stroke:#000000;}#mermaid-0 svg{font-family:"trebuchet ms",verdana,arial,sans-serif;font-size:16px;}#mermaid-0 .entityBox{fill:#cde498;stroke:#13540c;}#mermaid-0 .attributeBoxOdd{fill:#ffffff;stroke:#13540c;}#mermaid-0 .attributeBoxEven{fill:#f2f2f2;stroke:#13540c;}#mermaid-0 .relationshipLabelBox{fill:hsl(78.1578947368, 58.4615384615%, 84.5098039216%);opacity:0.7;background-color:hsl(78.1578947368, 58.4615384615%, 84.5098039216%);}#mermaid-0 .relationshipLabelBox rect{opacity:0.5;}#mermaid-0 .relationshipLine{stroke:#000000;}#mermaid-0 .entityTitleText{text-anchor:middle;font-size:18px;fill:#000000;}#mermaid-0 :root{--mermaid-font-family:"trebuchet ms",verdana,arial,sans-serif;}</style><g/><defs><marker orient="auto" markerHeight="18" markerWidth="18" refY="9" refX="0" id="ONLY_ONE_START"><path d="M9,0 L9,18 M15,0 L15,18" fill="none" stroke="gray"/></marker></defs><defs><marker orient="auto" markerHeight="18" markerWidth="18" refY="9" refX="18" id="ONLY_ONE_END"><path d="M3,0 L3,18 M9,0 L9,18" fill="none" stroke="gray"/></marker></defs><defs><marker orient="auto" markerHeight="18" markerWidth="30" refY="9" refX="0" id="ZERO_OR_ONE_START"><circle r="6" cy="9" cx="21" fill="white" stroke="gray"/><path d="M9,0 L9,18" fill="none" stroke="gray"/></marker></defs><defs><marker orient="auto" markerHeight="18" markerWidth="30" refY="9" refX="30" id="ZERO_OR_ONE_END"><circle r="6" cy="9" cx="9" fill="white" stroke="gray"/><path d="M21,0 L21,18" fill="none" stroke="gray"/></marker></defs><defs><marker orient="auto" markerHeight="36" markerWidth="45" refY="18" refX="18" id="ONE_OR_MORE_START"><path d="M0,18 Q 18,0 36,18 Q 18,36 0,18 M42,9 L42,27" fill="none" stroke="gray"/></marker></defs><defs><marker orient="auto" markerHeight="36" markerWidth="45" refY="18" refX="27" id="ONE_OR_MORE_END"><path d="M3,9 L3,27 M9,18 Q27,0 45,18 Q27,36 9,18" fill="none" stroke="gray"/></marker></defs><defs><marker orient="auto" markerHeight="36" markerWidth="57" refY="18" refX="18" id="ZERO_OR_MORE_START"><circle r="6" cy="18" cx="48" fill="white" stroke="gray"/><path d="M0,18 Q18,0 36,18 Q18,36 0,18" fill="none" stroke="gray"/></marker></defs><defs><marker orient="auto" markerHeight="36" markerWidth="57" refY="18" refX="39" id="ZERO_OR_MORE_END"><circle r="6" cy="18" cx="9" fill="white" stroke="gray"/><path d="M21,18 Q39,0 57,18 Q39,36 21,18" fill="none" stroke="gray"/></marker></defs><path style="stroke: gray; fill: none;" marker-start="url(#ZERO_OR_MORE_START)" marker-end="url(#ONLY_ONE_END)" d="M131.146484375,278L131.146484375,286.3333333333333C131.146484375,294.6666666666667,131.146484375,311.3333333333333,167.11266962687174,332.52153773543466C203.0788548787435,353.709742137536,275.011225382487,379.41948427507197,310.9774106343587,392.27435534383994L346.94359588623047,405.1292264126079" class="er relationshipLine"/><path style="stroke: gray; fill: none;" marker-start="url(#ZERO_OR_MORE_START)" marker-end="url(#ONLY_ONE_END)" d="M81.146484375,88L81.146484375,96.33333333333333C81.146484375,104.66666666666667,81.146484375,121.33333333333333,85.5324492872807,138C89.91841419956141,154.66666666666666,98.69034402412281,171.33333333333334,103.0763089364035,179.66666666666666L107.4622738486842,188" class="er relationshipLine"/><path style="stroke: gray; fill: none;" marker-start="url(#ZERO_OR_MORE_START)" marker-end="url(#ONLY_ONE_END)" d="M351.59422302246094,267L351.59422302246094,277.1666666666667C351.59422302246094,287.3333333333333,351.59422302246094,307.6666666666667,355.5722381859495,326.1666666666667C359.55025334943804,344.6666666666667,367.5062836764152,361.3333333333333,371.4842988399037,369.6666666666667L375.4623140033923,378" class="er relationshipLine"/><path style="stroke: gray; fill: none;" marker-start="url(#ZERO_OR_MORE_START)" marker-end="url(#ONLY_ONE_END)" d="M351.59422302246094,77L351.59422302246094,87.16666666666667C351.59422302246094,97.33333333333333,351.59422302246094,117.66666666666667,351.59422302246094,138C351.59422302246094,158.33333333333334,351.59422302246094,178.66666666666666,351.59422302246094,188.83333333333334L351.59422302246094,199" class="er relationshipLine"/><path style="stroke: gray; fill: none;" marker-start="url(#ZERO_OR_MORE_START)" marker-end="url(#ONLY_ONE_END)" d="M307.72340166001095,77L288.33122699979754,87.16666666666667C268.9390523395841,97.33333333333333,230.1547030191573,117.66666666666667,205.47973280423068,136.16666666666666C180.8047625893041,154.66666666666666,170.23917147987768,171.33333333333334,164.95637592516448,179.66666666666666L159.67358037045128,188" class="er relationshipLine"/><path style="stroke: gray; fill: none;" marker-start="url(#ZERO_OR_MORE_START)" marker-end="url(#ONLY_ONE_END)" d="M393.7429618835449,77L412.3739261627197,87.16666666666667C431.00489044189453,97.33333333333333,468.26681900024414,117.66666666666667,486.89778327941895,143.66666666666666C505.52874755859375,169.66666666666666,505.52874755859375,201.33333333333334,505.52874755859375,233C505.52874755859375,264.6666666666667,505.52874755859375,296.3333333333333,495.7645556131999,320.70925486151754C486.00036366780597,345.0851763897017,466.47197977701825,362.1703527794034,456.70778783162433,370.7129409742542L446.94359588623047,379.25552916910505" class="er relationshipLine"/><g transform="translate(346.94359588623047,378 )" id="entity-users-a6b7d121-7584-4b0a-930f-c5d94bd671db"><rect height="90" width="100" y="0" x="0" class="er entityBox"/><text style="dominant-baseline: middle; text-anchor: middle; font-size: 12px;" transform="translate(50,12)" y="0" x="0" id="text-entity-users-a6b7d121-7584-4b0a-930f-c5d94bd671db" class="er entityLabel">users</text><rect height="22" width="38.90184020996094" y="24" x="0" class="er attributeBoxOdd"/><text style="dominant-baseline: middle; font-size: 10.2px;" transform="translate(5,35)" y="0" x="0" id="text-entity-users-a6b7d121-7584-4b0a-930f-c5d94bd671db-attr-1-type" class="er entityLabel">String</text><rect height="22" width="36.904693603515625" y="24" x="38.90184020996094" class="er attributeBoxOdd"/><text style="dominant-baseline: middle; font-size: 10.2px;" transform="translate(43.90184020996094,35)" y="0" x="0" id="text-entity-users-a6b7d121-7584-4b0a-930f-c5d94bd671db-attr-1-name" class="er entityLabel">id</text><rect height="22" width="24.193466186523438" y="24" x="75.80653381347656" class="er attributeBoxOdd"/><text style="dominant-baseline: middle; font-size: 10.2px;" transform="translate(80.80653381347656,35)" y="0" x="0" id="text-entity-users-a6b7d121-7584-4b0a-930f-c5d94bd671db-attr-1-key" class="er entityLabel">PK</text><rect height="22" width="38.90184020996094" y="46" x="0" class="er attributeBoxEven"/><text style="dominant-baseline: middle; font-size: 10.2px;" transform="translate(5,57)" y="0" x="0" id="text-entity-users-a6b7d121-7584-4b0a-930f-c5d94bd671db-attr-2-type" class="er entityLabel">String</text><rect height="22" width="36.904693603515625" y="46" x="38.90184020996094" class="er attributeBoxEven"/><text style="dominant-baseline: middle; font-size: 10.2px;" transform="translate(43.90184020996094,57)" y="0" x="0" id="text-entity-users-a6b7d121-7584-4b0a-930f-c5d94bd671db-attr-2-name" class="er entityLabel">name</text><rect height="22" width="24.193466186523438" y="46" x="75.80653381347656" class="er attributeBoxEven"/><text style="dominant-baseline: middle; font-size: 10.2px;" transform="translate(80.80653381347656,57)" y="0" x="0" id="text-entity-users-a6b7d121-7584-4b0a-930f-c5d94bd671db-attr-2-key" class="er entityLabel"/><rect height="22" width="38.90184020996094" y="68" x="0" class="er attributeBoxOdd"/><text style="dominant-baseline: middle; font-size: 10.2px;" transform="translate(5,79)" y="0" x="0" id="text-entity-users-a6b7d121-7584-4b0a-930f-c5d94bd671db-attr-3-type" class="er entityLabel">String</text><rect height="22" width="36.904693603515625" y="68" x="38.90184020996094" class="er attributeBoxOdd"/><text style="dominant-baseline: middle; font-size: 10.2px;" transform="translate(43.90184020996094,79)" y="0" x="0" id="text-entity-users-a6b7d121-7584-4b0a-930f-c5d94bd671db-attr-3-name" class="er entityLabel">email</text><rect height="22" width="24.193466186523438" y="68" x="75.80653381347656" class="er attributeBoxOdd"/><text style="dominant-baseline: middle; font-size: 10.2px;" transform="translate(80.80653381347656,79)" y="0" x="0" id="text-entity-users-a6b7d121-7584-4b0a-930f-c5d94bd671db-attr-3-key" class="er entityLabel"/></g><g transform="translate(64.63327026367188,188 )" id="entity-habits-ad9da65f-fb7c-4b5d-bd7a-ccfc25135b06"><rect height="90" width="133.02642822265625" y="0" x="0" class="er entityBox"/><text style="dominant-baseline: middle; text-anchor: middle; font-size: 12px;" transform="translate(66.51321411132812,12)" y="0" x="0" id="text-entity-habits-ad9da65f-fb7c-4b5d-bd7a-ccfc25135b06" class="er entityLabel">habits</text><rect height="22" width="54.095550537109375" y="24" x="0" class="er attributeBoxOdd"/><text style="dominant-baseline: middle; font-size: 10.2px;" transform="translate(5,35)" y="0" x="0" id="text-entity-habits-ad9da65f-fb7c-4b5d-bd7a-ccfc25135b06-attr-1-type" class="er entityLabel">String</text><rect height="22" width="56.243194580078125" y="24" x="54.095550537109375" class="er attributeBoxOdd"/><text style="dominant-baseline: middle; font-size: 10.2px;" transform="translate(59.095550537109375,35)" y="0" x="0" id="text-entity-habits-ad9da65f-fb7c-4b5d-bd7a-ccfc25135b06-attr-1-name" class="er entityLabel">id</text><rect height="22" width="22.68768310546875" y="24" x="110.3387451171875" class="er attributeBoxOdd"/><text style="dominant-baseline: middle; font-size: 10.2px;" transform="translate(115.3387451171875,35)" y="0" x="0" id="text-entity-habits-ad9da65f-fb7c-4b5d-bd7a-ccfc25135b06-attr-1-key" class="er entityLabel">PK</text><rect height="22" width="54.095550537109375" y="46" x="0" class="er attributeBoxEven"/><text style="dominant-baseline: middle; font-size: 10.2px;" transform="translate(5,57)" y="0" x="0" id="text-entity-habits-ad9da65f-fb7c-4b5d-bd7a-ccfc25135b06-attr-2-type" class="er entityLabel">String</text><rect height="22" width="56.243194580078125" y="46" x="54.095550537109375" class="er attributeBoxEven"/><text style="dominant-baseline: middle; font-size: 10.2px;" transform="translate(59.095550537109375,57)" y="0" x="0" id="text-entity-habits-ad9da65f-fb7c-4b5d-bd7a-ccfc25135b06-attr-2-name" class="er entityLabel">title</text><rect height="22" width="22.68768310546875" y="46" x="110.3387451171875" class="er attributeBoxEven"/><text style="dominant-baseline: middle; font-size: 10.2px;" transform="translate(115.3387451171875,57)" y="0" x="0" id="text-entity-habits-ad9da65f-fb7c-4b5d-bd7a-ccfc25135b06-attr-2-key" class="er entityLabel"/><rect height="22" width="54.095550537109375" y="68" x="0" class="er attributeBoxOdd"/><text style="dominant-baseline: middle; font-size: 10.2px;" transform="translate(5,79)" y="0" x="0" id="text-entity-habits-ad9da65f-fb7c-4b5d-bd7a-ccfc25135b06-attr-3-type" class="er entityLabel">DateTime</text><rect height="22" width="56.243194580078125" y="68" x="54.095550537109375" class="er attributeBoxOdd"/><text style="dominant-baseline: middle; font-size: 10.2px;" transform="translate(59.095550537109375,79)" y="0" x="0" id="text-entity-habits-ad9da65f-fb7c-4b5d-bd7a-ccfc25135b06-attr-3-name" class="er entityLabel">createdAt</text><rect height="22" width="22.68768310546875" y="68" x="110.3387451171875" class="er attributeBoxOdd"/><text style="dominant-baseline: middle; font-size: 10.2px;" transform="translate(115.3387451171875,79)" y="0" x="0" id="text-entity-habits-ad9da65f-fb7c-4b5d-bd7a-ccfc25135b06-attr-3-key" class="er entityLabel"/></g><g transform="translate(20,20 )" id="entity-habitweekdays-55606d27-c38c-4c26-a347-81720fb7635f"><rect height="68" width="122.29296875" y="0" x="0" class="er entityBox"/><text style="dominant-baseline: middle; text-anchor: middle; font-size: 12px;" transform="translate(61.146484375,12)" y="0" x="0" id="text-entity-habitweekdays-55606d27-c38c-4c26-a347-81720fb7635f" class="er entityLabel">habit_week_days</text><rect height="22" width="40.640523274739586" y="24" x="0" class="er attributeBoxOdd"/><text style="dominant-baseline: middle; font-size: 10.2px;" transform="translate(5,35)" y="0" x="0" id="text-entity-habitweekdays-55606d27-c38c-4c26-a347-81720fb7635f-attr-1-type" class="er entityLabel">String</text><rect height="22" width="55.720296223958336" y="24" x="40.640523274739586" class="er attributeBoxOdd"/><text style="dominant-baseline: middle; font-size: 10.2px;" transform="translate(45.640523274739586,35)" y="0" x="0" id="text-entity-habitweekdays-55606d27-c38c-4c26-a347-81720fb7635f-attr-1-name" class="er entityLabel">id</text><rect height="22" width="25.932149251302082" y="24" x="96.36081949869792" class="er attributeBoxOdd"/><text style="dominant-baseline: middle; font-size: 10.2px;" transform="translate(101.36081949869792,35)" y="0" x="0" id="text-entity-habitweekdays-55606d27-c38c-4c26-a347-81720fb7635f-attr-1-key" class="er entityLabel">PK</text><rect height="22" width="40.640523274739586" y="46" x="0" class="er attributeBoxEven"/><text style="dominant-baseline: middle; font-size: 10.2px;" transform="translate(5,57)" y="0" x="0" id="text-entity-habitweekdays-55606d27-c38c-4c26-a347-81720fb7635f-attr-2-type" class="er entityLabel">Int</text><rect height="22" width="55.720296223958336" y="46" x="40.640523274739586" class="er attributeBoxEven"/><text style="dominant-baseline: middle; font-size: 10.2px;" transform="translate(45.640523274739586,57)" y="0" x="0" id="text-entity-habitweekdays-55606d27-c38c-4c26-a347-81720fb7635f-attr-2-name" class="er entityLabel">weekDay</text><rect height="22" width="25.932149251302082" y="46" x="96.36081949869792" class="er attributeBoxEven"/><text style="dominant-baseline: middle; font-size: 10.2px;" transform="translate(101.36081949869792,57)" y="0" x="0" id="text-entity-habitweekdays-55606d27-c38c-4c26-a347-81720fb7635f-attr-2-key" class="er entityLabel"/></g><g transform="translate(297.6596984863281,199 )" id="entity-days-becfc167-2125-49de-a84b-975eca00208d"><rect height="68" width="107.86904907226562" y="0" x="0" class="er entityBox"/><text style="dominant-baseline: middle; text-anchor: middle; font-size: 12px;" transform="translate(53.93452453613281,12)" y="0" x="0" id="text-entity-days-becfc167-2125-49de-a84b-975eca00208d" class="er entityLabel">days</text><rect height="22" width="54.095550537109375" y="24" x="0" class="er attributeBoxOdd"/><text style="dominant-baseline: middle; font-size: 10.2px;" transform="translate(5,35)" y="0" x="0" id="text-entity-days-becfc167-2125-49de-a84b-975eca00208d-attr-1-type" class="er entityLabel">String</text><rect height="22" width="31.0858154296875" y="24" x="54.095550537109375" class="er attributeBoxOdd"/><text style="dominant-baseline: middle; font-size: 10.2px;" transform="translate(59.095550537109375,35)" y="0" x="0" id="text-entity-days-becfc167-2125-49de-a84b-975eca00208d-attr-1-name" class="er entityLabel">id</text><rect height="22" width="22.68768310546875" y="24" x="85.18136596679688" class="er attributeBoxOdd"/><text style="dominant-baseline: middle; font-size: 10.2px;" transform="translate(90.18136596679688,35)" y="0" x="0" id="text-entity-days-becfc167-2125-49de-a84b-975eca00208d-attr-1-key" class="er entityLabel">PK</text><rect height="22" width="54.095550537109375" y="46" x="0" class="er attributeBoxEven"/><text style="dominant-baseline: middle; font-size: 10.2px;" transform="translate(5,57)" y="0" x="0" id="text-entity-days-becfc167-2125-49de-a84b-975eca00208d-attr-2-type" class="er entityLabel">DateTime</text><rect height="22" width="31.0858154296875" y="46" x="54.095550537109375" class="er attributeBoxEven"/><text style="dominant-baseline: middle; font-size: 10.2px;" transform="translate(59.095550537109375,57)" y="0" x="0" id="text-entity-days-becfc167-2125-49de-a84b-975eca00208d-attr-2-name" class="er entityLabel">date</text><rect height="22" width="22.68768310546875" y="46" x="85.18136596679688" class="er attributeBoxEven"/><text style="dominant-baseline: middle; font-size: 10.2px;" transform="translate(90.18136596679688,57)" y="0" x="0" id="text-entity-days-becfc167-2125-49de-a84b-975eca00208d-attr-2-key" class="er entityLabel"/></g><g transform="translate(301.59422302246094,31 )" id="entity-dayhabits-20790ba7-65d9-4dce-bdf2-c0c658099e1f"><rect height="46" width="100" y="0" x="0" class="er entityBox"/><text style="dominant-baseline: middle; text-anchor: middle; font-size: 12px;" transform="translate(50,12)" y="0" x="0" id="text-entity-dayhabits-20790ba7-65d9-4dce-bdf2-c0c658099e1f" class="er entityLabel">day_habits</text><rect height="22" width="44.39861551920573" y="24" x="0" class="er attributeBoxOdd"/><text style="dominant-baseline: middle; font-size: 10.2px;" transform="translate(5,35)" y="0" x="0" id="text-entity-dayhabits-20790ba7-65d9-4dce-bdf2-c0c658099e1f-attr-1-type" class="er entityLabel">String</text><rect height="22" width="25.911142985026043" y="24" x="44.39861551920573" class="er attributeBoxOdd"/><text style="dominant-baseline: middle; font-size: 10.2px;" transform="translate(49.39861551920573,35)" y="0" x="0" id="text-entity-dayhabits-20790ba7-65d9-4dce-bdf2-c0c658099e1f-attr-1-name" class="er entityLabel">id</text><rect height="22" width="29.69024149576823" y="24" x="70.30975850423177" class="er attributeBoxOdd"/><text style="dominant-baseline: middle; font-size: 10.2px;" transform="translate(75.30975850423177,35)" y="0" x="0" id="text-entity-dayhabits-20790ba7-65d9-4dce-bdf2-c0c658099e1f-attr-1-key" class="er entityLabel">PK</text></g><rect height="14" width="25.18359375" y="352.1156921386719" x="210.60848999023438" class="er relationshipLabelBox"/><text style="text-anchor: middle; dominant-baseline: middle; font-size: 12px;" y="359.1156921386719" x="223.20028686523438" id="rel1" class="er relationshipLabel">User</text><rect height="14" width="27.96875" y="133.108642578125" x="72.1260757446289" class="er relationshipLabelBox"/><text style="text-anchor: middle; dominant-baseline: middle; font-size: 12px;" y="140.108642578125" x="86.1104507446289" id="rel2" class="er relationshipLabel">habit</text><rect height="14" width="25.18359375" y="317.326904296875" x="342.5990905761719" class="er relationshipLabelBox"/><text style="text-anchor: middle; dominant-baseline: middle; font-size: 12px;" y="324.326904296875" x="355.1908874511719" id="rel3" class="er relationshipLabel">User</text><rect height="14" width="19.990234375" y="131" x="341.59912109375" class="er relationshipLabelBox"/><text style="text-anchor: middle; dominant-baseline: middle; font-size: 12px;" y="138" x="351.59423828125" id="rel4" class="er relationshipLabel">day</text><rect height="14.000007629394531" width="27.96875" y="115.49489212036133" x="211.5540771484375" class="er relationshipLabelBox"/><text style="text-anchor: middle; dominant-baseline: middle; font-size: 12px;" y="122.4948959350586" x="225.5384521484375" id="rel5" class="er relationshipLabel">habit</text><rect height="14" width="23.958984375" y="204.72174072265625" x="493.3372802734375" class="er relationshipLabelBox"/><text style="text-anchor: middle; dominant-baseline: middle; font-size: 12px;" y="211.72174072265625" x="505.3167724609375" id="rel6" class="er relationshipLabel">user</text></svg>